<svg xmlns="http://www.w3.org/2000/svg" fill="none" viewBox="0 0 1024 1024"><path fill="#EFEFEF" fill-rule="evenodd" d="M284.4 0h455.2c98.9 0 134.7 10.3 170.9 29.6a201.6 201.6 0 0 1 83.9 83.9c19.3 36.2 29.6 72 29.6 171v455c0 99-10.3 134.8-29.6 171a201.6 201.6 0 0 1-83.9 83.9c-36.2 19.3-72 29.6-171 29.6h-455c-99 0-134.8-10.3-171-29.6a201.6 201.6 0 0 1-83.9-83.9C10.3 874.3 0 838.5 0 739.5v-455c0-99 10.3-134.8 29.6-171a201.6 201.6 0 0 1 83.9-83.9c36.2-19.3 72-29.6 171-29.6Z" clip-rule="evenodd"/><path fill="#CECECE" d="M230.7 1.3c-2.8 4.9-27 44.4-56.4 91.8-24.7 39.6-62 99.9-92.3 148.8l-22.5 36.4A5717.7 5717.7 0 0 1 .8 372c-.5 0-.8-34.1-.8-75.8v-11.8c0-26.7.7-48.7 2.2-67.5L120.4 26C147 12.8 175.6 4.4 230.7 1.3Z"/><path fill="#A8A8A8" d="m1024 321-3.4 5.2-161.2 260.2a934.8 934.8 0 0 1-38.6 59.8 38.4 38.4 0 0 1-26.5 11.6l-8.3.5-8.8-8.5a142.1 142.1 0 0 0-16.5-13.6c-8.9-6.1-9.2-6.8-9.1-19.7 0-6.8.5-10.1 2.1-13.5 1.8-4 32.5-53.8 219.4-355.2 18.7-30.1 35.1-56.5 43.8-70 4.7 25.5 7.1 58.6 7.1 106.6V321Z"/><path fill="#A2A2A2" d="M0 675.2 9.5 660c5.2-8.3 10.7-16.7 12.1-18.5a40 40 0 0 1 48.9-10.1c16.1 8 25.2 25 22.5 42-.5 3.5-1.7 8-2.5 9.9-1.3 3.1-71.3 116.6-86.7 140.7A762.5 762.5 0 0 1 0 739.6v-64.4Zm301.7-259.1c-15.9 25-17.1 27.7-17.1 39.9.1 12.6 2.5 18.9 10.5 27.4a40 40 0 0 0 58.7 1.2c5.1-5.2 46.2-70.2 46.2-73.1 0-1.1-7.2-1.4-43.7-1.8-24.1-.2-45-.8-46.5-1.2-2.5-.7-3-.2-8.1 7.6ZM502.3 92.8a39338 39338 0 0 0 54.8-88.5l2.4-4.3h47.9c45.1 0 47.8.1 47.1 1.7-.8 2.3-107.3 174.2-109.3 176.5-1.4 1.7-5 1.8-48.4 1.8-40.2 0-46.8-.2-46.8-1.4 0-.8 23.5-39.4 52.3-85.8Z"/><path fill="#919191" d="M324.3 0c39.9 0 47.8.2 47.4 1.4-.3.7-15.1 24.9-32.9 53.7-21.3 34.5-33.9 54-37.1 57.2a44.4 44.4 0 0 1-11.5 8c-6.3 3-7.4 3.2-17.7 3.2-10 0-11.5-.2-16.7-2.8a41 41 0 0 1-19.5-19.5c-3.6-7.3-3.8-8-3.8-17.6 0-8.4.4-11 2.3-15.1a909 909 0 0 1 22-36.8L276.4 0h47.9ZM17.4 883.9l10.3-16.7a48769 48769 0 0 1 188.9-304.3 39 39 0 0 1 34.5-15.6c7.4.3 9.6.8 15.5 3.7a40.2 40.2 0 0 1 23.1 33.3c1.1 13.9.7 14.5-22.5 42.2l-2.6 3c-10.5 12.6-21 24.9-23.9 28.3a113.6 113.6 0 0 0-25.3 56.5l-1.3 7.8-59.4 95.7-88.2 142.1a222.3 222.3 0 0 1-49-76Zm536.7 49.6a7314.2 7314.2 0 0 0-54.7 89c-.5 1.3 4.7 1.5 47.2 1.5l47.9-.1 54.7-88.2a4029 4029 0 0 0 54.2-88.9c-.3-.5-21.8-.8-47.8-.8h-47.4l-54.1 87.5Z"/><path fill="#B9B9B9" d="m0 443.9 66.4-107.2 41.7-67.4.2-.3 43.6-70.5a463.9 463.9 0 0 1 23.3-35.2 42 42 0 0 1 18.9-10.7 40.7 40.7 0 0 1 47.5 54.4c-1.2 3-31 51.8-66.2 108.5L56.5 507.2A5564 5564 0 0 1 .8 596c-.5 0-.8-34.2-.8-76.1v-76ZM910.5 29.6a210.3 210.3 0 0 0-72-23.8l-4.6 7.4-85.7 138.3a385.2 385.2 0 0 0-18.6 31.7c-.1 1.4 2 2.7 7.9 5.1a116 116 0 0 1 50.4 38.9c2.4 3.2 4.6 5.8 5 5.8.3 0 1.3-1 2-2.3 11.4-18 86-138.8 122.2-197.4l-6.6-3.7ZM465.7 849.2c-3 4.1-106.5 171.1-107.3 173.3-.6 1.3 4.4 1.5 46.9 1.5h47.5l7-11.2c68-109.4 102.1-165.1 101.7-165.9-.4-.5-19.3-.9-47-.9h-46.4l-2.4 3.2Zm-277.6-24.4c-33 53.3-35.1 57.4-35.1 67.3 0 11.5 4.6 22.3 12.7 30a40.2 40.2 0 0 0 56.8-.6c5.9-6 55-84.8 54.2-86.9-.3-.8-3.1-2.8-6.2-4.6a117.8 117.8 0 0 1-43.9-46.9c-2.5-4.9-5-9.3-5.5-9.6-.5-.2-15.3 22.8-33 51.3Z"/><path fill="#DFDFDF" d="M1000.3 462a40.2 40.2 0 0 0-17.1 11.7c-1.6 2.1-26.2 41.4-54.7 87.3l-37 59.5a30550.2 30550.2 0 0 1-42.8 69c-33.1 53.3-37.7 60.7-40.4 68.7l-1.2 4.1-1 3.2A108.9 108.9 0 0 1 775 815l-10.6 10.5-61.2 98.8c-33.7 54.3-61.2 99-61.2 99.3 0 .2 20.6.4 46 .4h47.5l14.4-23.3c36.2-58.2 149.4-240.9 223.5-360.7 25.7-41.5 47.6-76.7 48.7-78.2 1.8-2.6 1.9-4.9 1.9-51.7 0-43.7-.2-49-1.6-49.5-3.3-1.3-17-.4-22.1 1.4Zm-1.8-340.5a3733.8 3733.8 0 0 1-59.7 97.1L898 284.5 721.8 568.8l-1 1.4-15.3 24.8-12.2 19.5-46.6.3a649 649 0 0 1-46.7-.6c0-.4 14.3-23.8 31.8-51.9l31.7-51.3 50.5-60.7c27.8-33.4 55-65.5 60.6-71.3 5.5-5.8 12.1-13.5 14.7-17.1a123 123 0 0 0 19.8-47.9c1.4-7.8 1.7-30.6.6-35.1-.6-2.2 2.9-8.3 21.6-38.5L893.5 140c23.5-37.9 41.7-66.2 44.2-68.7 4.3-4.3 9.9-7.7 16.8-10h.1a203.1 203.1 0 0 1 43.9 60.2ZM797.2 1.5c-5.9 9.8-107 172.6-108.4 174.7l-1.9 2.8h-46.6c-37.2 0-46.4-.3-46-1.3.2-.7 14.8-24.4 32.4-52.7l54.7-88.3L704.2 0h36c21.8 0 40.6.5 57 1.5Zm-588 1019.6c6.7-11.8 39.2-62.8 42.2-65.9a41.2 41.2 0 0 1 16.9-10.8c2.6-.8 7.7-1.3 13.2-1.1 7.7.2 9.9.6 15.5 3.3a41.5 41.5 0 0 1 19.4 19.4c2.8 5.9 3.1 7.4 3.1 16.5 0 11.7-.7 13.5-11.2 30.5l-6.8 11h-17c-30.5 0-55-1-75.3-2.9ZM379.6 64.7l27.2-43.9L419.5 0h91.7l-.6 2.7c-.8 3.4-6.6 13-63.1 104L402.7 179h-39.1a863.5 863.5 0 0 0-54.7 1.2 1662 1662 0 0 1 42.2-69.7l28.5-45.8Zm-290 468.7c1-2.3 29.8-49.2 63.9-104.3 34.1-55 62.4-99.9 62.9-99.8a40 40 0 0 1 4.6 9.3 116.3 116.3 0 0 0 40.6 51c4.4 3.2 6.4 5.2 6.1 6.3-.3 1.3-29.6 48.8-96.8 157.1-14.1 22.6-16.9 25.9-26.6 30.7-7.4 3.6-8.1 3.8-17.7 3.8-9.3 0-10.7-.3-16.8-3.2a39.4 39.4 0 0 1-19.1-19.1c-3-6.2-3.2-7.4-3.1-17.2 0-8.2.5-11.4 2-14.6Z"/><path fill="#9C9C9C" d="M95.2 983.4c3.1-4.8 5.2-7.7 6.3-9.1a42.9 42.9 0 0 1 18-11.6 35 35 0 0 1 14.1-1.4c7.9.2 10 .7 15.8 3.6a40.5 40.5 0 0 1 20.9 50.5c-23.2-5-40-12-56.8-21-6.3-3.4-12.4-7-18.3-11Zm926.5-175.6c1.2-14.6 2-31.1 2.2-50.3l-.1-30.2-.3-76.8-3.6 5.5c-7.5 11.4-215.9 347.5-227.4 366.7 56-3 84.8-11.5 111.6-25l117.6-190Zm-713.2 42.6a41 41 0 0 0 38.2 64.1c8.8-.9 18.8-6.1 25-12.9 4.6-5.1 33-49.9 34-53.7.5-1.8-.8-1.9-39.8-1.9-22.2 0-43.4-.3-47.1-.6l-6.6-.7-3.7 5.7Z"/><path fill="url(#a)" d="M695 225a69 69 0 0 1 65.3 46.4l.2.8a69 69 0 0 1-11.7 66l-.8.8-271 322h218a69 69 0 1 1 0 138H329a68.7 68.7 0 0 1-44.8-16.4 69 69 0 0 1-9-96.4l.7-.8L547.4 363H329.1a69 69 0 0 1 0-138h366Z"/><path stroke="#000" stroke-opacity=".1" stroke-width="4" d="M284.4 2h455.2c98.7 0 134.2 10.3 170 29.4a199.6 199.6 0 0 1 83 83c19.1 35.8 29.4 71.3 29.4 170v455.2c0 98.7-10.3 134.2-29.4 170a199.6 199.6 0 0 1-83 83c-35.8 19.1-71.3 29.4-170 29.4H284.4c-98.7 0-134.2-10.3-170-29.4a199.6 199.6 0 0 1-83-83C12.3 873.8 2 838.3 2 739.6V284.4c0-98.7 10.3-134.2 29.4-170a199.6 199.6 0 0 1 83-83C150.2 12.3 185.7 2 284.4 2Z"/><defs><linearGradient id="a" x1="511.5" x2="511.5" y1="801" y2="225.2" gradientUnits="userSpaceOnUse"><stop stop-color="#202020"/><stop offset="1" stop-color="#656565"/></linearGradient></defs></svg>
