<svg xmlns="http://www.w3.org/2000/svg" viewBox="0 0 1024 1024"><path fill-rule="evenodd" d="M739.6 48H284.4c-95 0-122 9.9-148.3 24A153.6 153.6 0 0 0 72 136c-14.1 26.4-24 53.3-24 148.3v455.2c0 95 9.9 122 24 148.3a153.6 153.6 0 0 0 64 64.2c26.4 14.1 53.3 24 148.3 24h455.2c95 0 122-9.9 148.3-24a153.6 153.6 0 0 0 64.2-64c14.1-26.4 24-53.3 24-148.3V284.4c0-95-9.9-122-24-148.3A153.6 153.6 0 0 0 888 72c-26.4-14.1-53.3-24-148.3-24Zm0-48H284.4c-98.9 0-134.7 10.3-170.9 29.6a201.6 201.6 0 0 0-83.9 83.9C10.3 149.7 0 185.5 0 284.5v455c0 99 10.3 134.8 29.6 171a201.6 201.6 0 0 0 83.9 83.9c36.2 19.3 72 29.6 171 29.6h455c99 0 134.8-10.3 171-29.6a201.6 201.6 0 0 0 83.9-83.9c19.3-36.2 29.6-72 29.6-171v-455c0-99-10.3-134.8-29.6-171a201.6 201.6 0 0 0-83.9-83.9C874.3 10.3 838.5 0 739.5 0Z"/><path d="M695 225a69 69 0 0 1 65.3 46.4l.2.8a69 69 0 0 1-11.7 66l-.8.8-271 322h218a69 69 0 1 1 0 138H329a68.7 68.7 0 0 1-44.8-16.4 69 69 0 0 1-9-96.4l.7-.8L547.4 363H329.1a69 69 0 0 1 0-138h366Z"/></svg>
