<svg xmlns="http://www.w3.org/2000/svg" viewBox="0 0 1024 1024"><path fill-rule="evenodd" d="M502.3 92.8a39338 39338 0 0 0 54.8-88.5l2.4-4.3h47.9c45.1 0 47.8.1 47.1 1.7-.8 2.3-107.3 174.2-109.3 176.5-1.4 1.7-5 1.8-48.4 1.8-40.2 0-46.8-.2-46.8-1.4 0-.8 23.5-39.4 52.3-85.8ZM284.6 456c0-12.2 1.2-14.9 17.1-39.9 5.1-7.8 5.6-8.3 8.1-7.6 1.5.4 22.4 1 46.5 1.2 36.5.4 43.7.7 43.7 1.8 0 2.9-41.1 67.9-46.2 73.1a40 40 0 0 1-58.7-1.2c-8-8.5-10.4-14.8-10.5-27.4ZM9.5 660 0 675.2v64.4c0 35.1 1.3 62.3 3.8 84.4a9100.4 9100.4 0 0 0 86.7-140.7c.8-1.9 2-6.4 2.5-9.9 2.7-17-6.4-34-22.5-42a40 40 0 0 0-48.9 10.1c-1.4 1.8-6.9 10.2-12.1 18.5ZM174.3 93.1c29.3-47.4 53.6-87 56.4-91.8-55.1 3-83.7 11.5-110.3 24.7L2.2 217A871 871 0 0 0 0 284.3v11.8c0 41.7.3 75.8.8 75.8.4-.1 26.8-42.2 58.7-93.7L81.9 242l.1-.2c30.3-49 67.6-109.2 92.3-148.8Zm846.3 233.1 3.4-5.2v-36.6c0-48-2.4-81.1-7.1-106.7-8.7 13.6-25.1 40-43.8 70.1C786.2 549.2 755.5 599 753.7 603a29.1 29.1 0 0 0-2.1 13.5c-.1 12.9.2 13.6 9.1 19.7 4.3 2.8 11.7 9 16.5 13.6l8.8 8.5 8.3-.5a38.4 38.4 0 0 0 26.5-11.6c2.9-3.1 17.4-25.5 38.6-59.8a247150 247150 0 0 1 161.2-260.2ZM324.3 0c39.9 0 47.8.2 47.4 1.4-.3.7-15.1 24.9-32.9 53.7-21.3 34.5-33.9 54-37.1 57.2a44.4 44.4 0 0 1-11.5 8c-6.3 3-7.4 3.2-17.7 3.2-10 0-11.5-.2-16.7-2.8a41 41 0 0 1-19.5-19.5c-3.6-7.3-3.8-8-3.8-17.6 0-8.4.4-11 2.3-15.1a909 909 0 0 1 22-36.8L276.4 0h47.9Zm-307 883.9 10.4-16.7a48769 48769 0 0 1 188.9-304.3 39 39 0 0 1 34.5-15.6c7.4.3 9.6.8 15.5 3.7a40.2 40.2 0 0 1 23.1 33.3c1.1 13.9.7 14.5-22.5 42.2l-2.6 3c-10.5 12.6-21 24.9-23.9 28.3a113.6 113.6 0 0 0-25.3 56.5l-1.3 7.8-59.4 95.7-88.2 142.1a222.3 222.3 0 0 1-49-76Zm482.1 138.6c.3-.9 24.9-40.9 54.7-89l54.1-87.5h47.4c26 0 47.5.3 47.8.8.2.4-24.2 40.4-54.2 88.9l-54.7 88.2-47.9.1c-42.5 0-47.7-.2-47.2-1.5ZM910.5 29.6a210.3 210.3 0 0 0-72-23.8l-4.6 7.4-85.7 138.3a385.2 385.2 0 0 0-18.6 31.7c-.1 1.4 2 2.7 7.9 5.1a116 116 0 0 1 50.4 38.9c2.4 3.2 4.6 5.8 5 5.8.3 0 1.3-1 2-2.3 11.4-18 86-138.8 122.2-197.4l-6.6-3.7ZM0 444l66.4-107.2 41.7-67.4.2-.3 43.6-70.5a463.9 463.9 0 0 1 23.3-35.2 42 42 0 0 1 18.9-10.7 40.7 40.7 0 0 1 47.5 54.4c-1.2 3-31 51.8-66.2 108.5L56.5 507.2A5564 5564 0 0 1 .8 596c-.5 0-.8-34.2-.8-76.1v-76Zm358.4 578.6c.8-2.2 104.3-169.2 107.3-173.3l2.4-3.2h46.4c27.7 0 46.6.4 47 .9.4.8-33.7 56.5-101.7 165.9l-7 11.2h-47.5c-42.5 0-47.5-.2-46.9-1.5ZM188.1 824.8c-33 53.3-35.1 57.4-35.1 67.3 0 11.5 4.6 22.3 12.7 30a40.2 40.2 0 0 0 56.8-.6c5.9-6 55-84.8 54.2-86.9-.3-.8-3.1-2.8-6.2-4.6a117.8 117.8 0 0 1-43.9-46.9c-2.5-4.9-5-9.3-5.5-9.6-.5-.2-15.3 22.8-33 51.3ZM797.2 1.5c-5.9 9.8-107 172.6-108.4 174.7l-1.9 2.8h-46.6c-37.2 0-46.4-.3-46-1.3.2-.7 14.8-24.4 32.4-52.7l54.7-88.3L704.2 0h36c21.8 0 40.6.5 57 1.5ZM946 207a4862 4862 0 0 0 52.5-85.5l-4.1-8a203.2 203.2 0 0 0-39.8-52.2h-.1a42.3 42.3 0 0 0-16.8 10c-2.5 2.5-20.7 30.8-44.2 68.7l-62.2 100.4c-18.7 30.2-22.2 36.3-21.6 38.5 1.1 4.5.8 27.3-.6 35.1a123 123 0 0 1-19.8 47.9c-2.6 3.6-9.2 11.3-14.7 17.1-5.6 5.8-32.8 37.9-60.6 71.3L663.5 511l-31.7 51.3a2297.3 2297.3 0 0 0-31.8 51.9c0 .5 21 .7 46.7.6l46.6-.3 12.2-19.5 15.4-24.8.9-1.4a419605 419605 0 0 0 217-350.2l.8-1.3.1-.1L946 207Zm37.2 266.7a40.2 40.2 0 0 1 17.1-11.7 55.2 55.2 0 0 1 22.1-1.4c1.4.5 1.6 5.8 1.6 49.5 0 46.8-.1 49.1-1.9 51.7-1.1 1.5-23 36.7-48.7 78.2-74.1 119.8-187.3 302.5-223.5 360.7l-14.4 23.3H688c-25.4 0-46-.2-46-.4 0-.3 27.5-45 61.2-99.3l61.2-98.8L775 815a108.9 108.9 0 0 0 32-52.7l1.3-4c2.7-8.1 7.3-15.5 40.4-68.8a85946 85946 0 0 0 42.8-69l37-59.5c28.5-45.9 53.1-85.2 54.7-87.3ZM251.4 955.2c-3 3.1-35.5 54.1-42.2 66 20.3 1.8 44.8 2.8 75.2 2.8h17.1l6.8-11c10.5-17 11.2-18.8 11.2-30.5 0-9.1-.3-10.6-3.1-16.5a41.5 41.5 0 0 0-19.4-19.4 29.4 29.4 0 0 0-15.5-3.3c-5.5-.2-10.6.3-13.2 1.1-6.2 2-12.3 5.9-16.9 10.8ZM379.6 64.7l27.2-43.9L419.5 0h91.7l-.6 2.7c-.8 3.4-6.6 13-63.1 104L402.7 179h-39.1a863.5 863.5 0 0 0-54.7 1.2 1662 1662 0 0 1 42.2-69.7l28.5-45.8ZM153.5 429c-34.1 55.1-62.9 102-63.9 104.3-1.5 3.2-2 6.4-2 14.6-.1 9.8.1 11 3.1 17.2 4 8.5 10.6 15.1 19.1 19.1 6.1 2.9 7.5 3.2 16.8 3.2 9.6 0 10.3-.2 17.7-3.8 9.7-4.8 12.5-8.1 26.6-30.7 67.2-108.3 96.5-155.8 96.8-157.1.3-1.1-1.7-3.1-6.1-6.3a116.3 116.3 0 0 1-40.6-51 40 40 0 0 0-4.6-9.3c-.5-.1-28.8 44.8-62.9 99.8Zm870.4 328.4c-.3 19.2-1 35.7-2.2 50.3l-117.6 190c-26.8 13.5-55.5 22-111.6 25 11.5-19.2 220-355.3 227.4-366.7l3.6-5.5.3 76.8v30.2ZM101.5 974.3c-1.1 1.4-3.2 4.3-6.3 9 5.9 4 12 7.7 18.3 11a202 202 0 0 0 56.8 21c6.8-20-1.6-41-20.9-50.4a28.7 28.7 0 0 0-15.8-3.6 35 35 0 0 0-14.1 1.4 42.9 42.9 0 0 0-18 11.6Zm207-123.9a41 41 0 0 0 38.2 64.1c8.8-.9 18.8-6.1 25-12.9 4.6-5.1 33-49.9 34-53.7.5-1.8-.8-1.9-39.8-1.9-22.2 0-43.4-.3-47.1-.6l-6.6-.7-3.7 5.7ZM258 295c0-32 21.4-59.9 52.2-68 7.1-1.8 13.1-1.9 203.3-1.7l196 .2 7.7 2.8a70 70 0 0 1 47.8 67.3c0 14.4-3.8 27.2-11.3 38.4-2 3-64.8 77.7-139.6 166l-136 160.5 115.2.5c108.5.5 115.5.6 120.7 2.4a72 72 0 0 1 48 50.2 75.8 75.8 0 0 1 0 34.8 70.8 70.8 0 0 1-50.6 50.6c-7.5 2-12 2-200.4 2s-192.9 0-200.4-2a70.8 70.8 0 0 1-50.6-50.6 89.2 89.2 0 0 1 0-37.8l1.2-4.6c3.7-12.7 13.2-23.7 145.3-179.5l136.5-161-114.8-.5c-108-.5-115-.6-120.2-2.3a71 71 0 0 1-50-67.7Z" clip-rule="evenodd"/></svg>
